<svg xmlns="http://www.w3.org/2000/svg" width="120" height="40" viewBox="0 0 120 40">
  <!-- 渐变定义 -->
  <defs>
    <!-- 主渐变 - 科技蓝紫渐变 -->
    <linearGradient id="mainGradient" x1="0%" y1="0%" x2="100%" y2="0%">
      <stop offset="0%" style="stop-color:#00d4ff;stop-opacity:1" />
      <stop offset="100%" style="stop-color:#7c3aed;stop-opacity:1" />
    </linearGradient>
    
    <!-- 辅助渐变 - 霓虹紫渐变 -->
    <linearGradient id="accentGradient" x1="0%" y1="0%" x2="100%" y2="100%">
      <stop offset="0%" style="stop-color:#f093fb;stop-opacity:1" />
      <stop offset="100%" style="stop-color:#f5576c;stop-opacity:1" />
    </linearGradient>
    
    <!-- 发光效果滤镜 -->
    <filter id="glowFilter" x="-50%" y="-50%" width="200%" height="200%">
      <feGaussianBlur stdDeviation="2" result="coloredBlur"/>
      <feMerge>
        <feMergeNode in="coloredBlur"/>
        <feMergeNode in="SourceGraphic"/>
      </feMerge>
    </filter>
    
    <!-- 科技粒子渐变 -->
    <radialGradient id="particleGradient" cx="50%" cy="50%" r="50%">
      <stop offset="0%" style="stop-color:#ffffff;stop-opacity:1" />
      <stop offset="100%" style="stop-color:#00d4ff;stop-opacity:0" />
    </radialGradient>
  </defs>
  
  <!-- 背景科技粒子 -->
  <g opacity="0.3">
    <circle cx="20" cy="10" r="2" fill="url(#particleGradient)"/>
    <circle cx="60" cy="15" r="2" fill="url(#particleGradient)"/>
    <circle cx="100" cy="10" r="2" fill="url(#particleGradient)"/>
    <circle cx="30" cy="30" r="1.5" fill="url(#particleGradient)"/>
    <circle cx="90" cy="30" r="1.5" fill="url(#particleGradient)"/>
  </g>
  
  <!-- 主图形：艺术科技RJ字母设计 -->
  <g filter="url(#glowFilter)">
    <!-- 字母R - 艺术化圆润设计 -->
    <path d="M25,35 C25,10 28,7 33,7 H45 C50,7 52,10 52,15 V30 C52,35 48,35 45,35 L38,35 C38,35 38,25 33,25 C28,25 25,35 25,35" stroke="url(#mainGradient)" stroke-width="6" stroke-linecap="round" stroke-linejoin="round" fill="none"/>
    
    <!-- 字母J - 艺术化圆润设计 -->
    <path d="M60,35 C60,10 63,7 68,7 H80 C85,7 87,10 87,15 V30 C87,35 83,35 80,35" stroke="url(#mainGradient)" stroke-width="6" stroke-linecap="round" stroke-linejoin="round" fill="none"/>
    
    <!-- 连接R和J的科技曲线 -->
    <path d="M52,20 C55,20 58,20 60,20" stroke="url(#accentGradient)" stroke-width="4" stroke-linecap="round" fill="none"/>
    
    <!-- 右侧RJ文字标注 -->
    <text x="95" y="25" font-family="Arial, sans-serif" font-size="16" font-weight="bold" fill="url(#mainGradient)" text-anchor="middle">RJ</text>
    
    <!-- 中心发光点 -->
    <circle cx="56" cy="20" r="3" fill="url(#accentGradient)"/>
    <circle cx="56" cy="20" r="1.5" fill="white" opacity="0.9"/>
  </g>
</svg>