<svg xmlns="http://www.w3.org/2000/svg" width="150" height="150"><defs><linearGradient id="b" x1="0%" y1="0%" x2="100%" y2="100%"><stop offset="0%" stop-color="#667eea"/><stop offset="100%" stop-color="#764ba2"/></linearGradient><linearGradient id="c" x1="0%" y1="0%" x2="100%" y2="100%"><stop offset="0%" stop-color="#f093fb" stop-opacity=".8"/><stop offset="100%" stop-color="#f093fb" stop-opacity="0"/></linearGradient><filter id="a" x="-100%" y="-100%" width="300%" height="300%"/></defs><rect width="150" height="150" rx="20" fill="#0d0d0d" opacity=".2"/><g filter="url(#a)"><circle cx="40" cy="80" r="15" fill="url(#b)" stroke="#667eea" stroke-width="2"/><circle cx="40" cy="80" r="12" fill="url(#c)" opacity=".5"/><path d="M45 80c10-5 20-10 30-5" stroke="url(#b)" stroke-width="8" stroke-linecap="round" fill="none"/><path d="M47 80c10-4 20-8 30-4" stroke="url(#c)" stroke-width="6" stroke-linecap="round" fill="none" opacity=".5"/><circle cx="80" cy="75" r="12" fill="url(#b)" stroke="#667eea" stroke-width="2"/><circle cx="80" cy="75" r="10" fill="url(#c)" opacity=".5"/><path d="M80 80c5 5 10 15 5 25" stroke="url(#b)" stroke-width="6" stroke-linecap="round" fill="none"/><path d="M80 82c5 5 10 15 5 25" stroke="url(#c)" stroke-width="4" stroke-linecap="round" fill="none" opacity=".5"/><circle cx="85" cy="110" r="10" fill="url(#b)" stroke="#667eea" stroke-width="2"/><circle cx="85" cy="110" r="8" fill="url(#c)" opacity=".5"/><path d="M80 70c-5-10-15-20-20-25" stroke="url(#b)" stroke-width="6" stroke-linecap="round" fill="none"/><path d="M80 68c-5-10-15-20-20-25" stroke="url(#c)" stroke-width="4" stroke-linecap="round" fill="none" opacity=".5"/><circle cx="60" cy="40" r="10" fill="url(#b)" stroke="#667eea" stroke-width="2"/><circle cx="60" cy="40" r="8" fill="url(#c)" opacity=".5"/><circle cx="95" cy="75" r="5" fill="url(#b)" stroke="#667eea"/></g><g transform="translate(30 120)"><path d="M0 0c25 5 55 5 80 0" stroke="url(#b)" stroke-width="2" stroke-linecap="round" fill="none" opacity=".6"/><circle cx="20" r="2" fill="#f093fb" opacity=".7"/><circle cx="40" cy="2" r="2" fill="#667eea" opacity=".7"/><circle cx="60" r="2" fill="#f093fb" opacity=".7"/></g><path d="M0 0c25-3 55-3 80 0" stroke="url(#b)" stroke-width="2" stroke-linecap="round" fill="none" opacity=".4" transform="translate(30 20)"/></svg>