<svg xmlns="http://www.w3.org/2000/svg" width="120" height="40"><defs><linearGradient id="c" x1="0%" y1="0%" x2="100%" y2="0%"><stop offset="0%" stop-color="#00d4ff"/><stop offset="100%" stop-color="#7c3aed"/></linearGradient><linearGradient id="d" x1="0%" y1="0%" x2="100%" y2="100%"><stop offset="0%" stop-color="#f093fb"/><stop offset="100%" stop-color="#f5576c"/></linearGradient><radialGradient id="a" cx="50%" cy="50%" r="50%"><stop offset="0%" stop-color="#fff"/><stop offset="100%" stop-color="#00d4ff" stop-opacity="0"/></radialGradient><filter id="b" x="-50%" y="-50%" width="200%" height="200%"><feGaussianBlur stdDeviation="2" result="coloredBlur"/><feMerge><feMergeNode in="coloredBlur"/><feMergeNode in="SourceGraphic"/></feMerge></filter></defs><g opacity=".3" fill="url(#a)"><circle cx="20" cy="10" r="2"/><circle cx="60" cy="15" r="2"/><circle cx="100" cy="10" r="2"/><circle cx="30" cy="30" r="1.5"/><circle cx="90" cy="30" r="1.5"/></g><g filter="url(#b)"><path d="M25 35c0-25 3-28 8-28h12c5 0 7 3 7 8v15c0 5-4 5-7 5h-7s0-10-5-10-8 10-8 10M60 35c0-25 3-28 8-28h12c5 0 7 3 7 8v15c0 5-4 5-7 5" stroke="url(#c)" stroke-width="6" stroke-linecap="round" stroke-linejoin="round" fill="none"/><path d="M52 20h8" stroke="url(#d)" stroke-width="4" stroke-linecap="round" fill="none"/><text x="95" y="25" font-family="Arial, sans-serif" font-size="16" font-weight="bold" fill="url(#c)" text-anchor="middle">RJ</text><circle cx="56" cy="20" r="3" fill="url(#d)"/><circle cx="56" cy="20" r="1.5" fill="#fff" opacity=".9"/></g></svg>